<svg width="1456" height="532" viewBox="0 0 1456 532" fill="none" xmlns="http://www.w3.org/2000/svg">
<path d="M292 269.5V216.5H373.5C390.167 216.5 403 212.333 412 204C421.333 195.333 426 183.5 426 168.5C426 154.833 421.333 143.5 412 134.5C403 125.167 390.167 120.5 373.5 120.5H292V65H379.5C402.167 65 422 69.5 439 78.5C456.333 87.1666 469.667 99.1666 479 114.5C488.667 129.833 493.5 147.5 493.5 167.5C493.5 188.167 488.667 206.167 479 221.5C469.667 236.5 456.333 248.333 439 257C421.667 265.333 401.5 269.5 378.5 269.5H292ZM242 416.5V65H310V416.5H242ZM434 416.5L318 264.5L380.5 245L516.5 416.5H434Z" fill="white"/>
<path d="M654.652 421.5C630.319 421.5 608.319 416 588.652 405C569.319 393.667 553.819 378.5 542.152 359.5C530.819 340.167 525.152 318.667 525.152 295C525.152 271.333 530.819 250.167 542.152 231.5C553.486 212.5 568.986 197.5 588.652 186.5C608.319 175.167 630.152 169.5 654.152 169.5C678.819 169.5 700.819 175.167 720.152 186.5C739.819 197.5 755.319 212.5 766.652 231.5C777.986 250.167 783.652 271.333 783.652 295C783.652 318.667 777.986 340.167 766.652 359.5C755.319 378.5 739.819 393.667 720.152 405C700.819 416 678.986 421.5 654.652 421.5ZM654.152 360.5C666.486 360.5 677.319 357.833 686.652 352.5C696.319 346.833 703.652 339.167 708.652 329.5C713.986 319.5 716.652 308.167 716.652 295.5C716.652 282.833 713.986 271.667 708.652 262C703.319 252.333 695.986 244.833 686.652 239.5C677.319 233.833 666.486 231 654.152 231C642.152 231 631.486 233.833 622.152 239.5C612.819 244.833 605.486 252.333 600.152 262C594.819 271.667 592.152 282.833 592.152 295.5C592.152 308.167 594.819 319.5 600.152 329.5C605.486 339.167 612.819 346.833 622.152 352.5C631.486 357.833 642.152 360.5 654.152 360.5Z" fill="white"/>
<path d="M939.32 421.5C914.987 421.5 892.987 416 873.32 405C853.987 393.667 838.487 378.5 826.82 359.5C815.487 340.167 809.82 318.667 809.82 295C809.82 271.333 815.487 250.167 826.82 231.5C838.154 212.5 853.654 197.5 873.32 186.5C892.987 175.167 914.82 169.5 938.82 169.5C963.487 169.5 985.487 175.167 1004.82 186.5C1024.49 197.5 1039.99 212.5 1051.32 231.5C1062.65 250.167 1068.32 271.333 1068.32 295C1068.32 318.667 1062.65 340.167 1051.32 359.5C1039.99 378.5 1024.49 393.667 1004.82 405C985.487 416 963.654 421.5 939.32 421.5ZM938.82 360.5C951.154 360.5 961.987 357.833 971.32 352.5C980.987 346.833 988.32 339.167 993.32 329.5C998.654 319.5 1001.32 308.167 1001.32 295.5C1001.32 282.833 998.654 271.667 993.32 262C987.987 252.333 980.654 244.833 971.32 239.5C961.987 233.833 951.154 231 938.82 231C926.82 231 916.154 233.833 906.82 239.5C897.487 244.833 890.154 252.333 884.82 262C879.487 271.667 876.82 282.833 876.82 295.5C876.82 308.167 879.487 319.5 884.82 329.5C890.154 339.167 897.487 346.833 906.82 352.5C916.154 357.833 926.82 360.5 938.82 360.5Z" fill="white"/>
<path d="M1140.13 416.5V74.5H1205.63V416.5H1140.13ZM1083.63 232.5V175H1262.13V232.5H1083.63Z" fill="white"/>
<path d="M621.589 196L561 246.84L571.285 259.097L631.873 208.257L621.589 196Z" fill="white"/>
<path fill-rule="evenodd" clip-rule="evenodd" d="M620.849 204.453L569.453 247.58L572.024 250.644L623.42 207.517L620.849 204.453ZM621.589 196L631.873 208.257L571.285 259.097L561 246.84L621.589 196Z" fill="#7D7D7D"/>
<path d="M413 162H121V178H413V162Z" fill="white"/>
<path fill-rule="evenodd" clip-rule="evenodd" d="M407 168H127V172H407V168ZM413 162V178H121V162H413Z" fill="#7D7D7D"/>
<path fill-rule="evenodd" clip-rule="evenodd" d="M242 179V161H310V179H242Z" fill="white"/>
<path d="M820 244H157V260H820V244Z" fill="white"/>
<path fill-rule="evenodd" clip-rule="evenodd" d="M814 250H163V254H814V250ZM820 244V260H157V244H820Z" fill="#7D7D7D"/>
<path d="M541 326H48V342H541V326Z" fill="white"/>
<path fill-rule="evenodd" clip-rule="evenodd" d="M535 332H54V336H535V332ZM541 326V342H48V326H541Z" fill="#7D7D7D"/>
<path d="M525.387 62.998L403 165.693L413.285 177.95L535.672 75.2547L525.387 62.998Z" fill="white"/>
<path fill-rule="evenodd" clip-rule="evenodd" d="M524.648 71.4509L411.453 166.432L414.024 169.497L527.219 74.5151L524.648 71.4509ZM525.387 62.998L535.672 75.2547L413.285 177.95L403 165.693L525.387 62.998Z" fill="#7D7D7D"/>
<path d="M818 63H526V79H818V63Z" fill="white"/>
<path fill-rule="evenodd" clip-rule="evenodd" d="M812 69H532V73H812V69ZM818 63V79H526V63H818Z" fill="#7D7D7D"/>
<path d="M571.051 138L441 247.125L451.285 259.382L581.335 150.257L571.051 138Z" fill="white"/>
<path fill-rule="evenodd" clip-rule="evenodd" d="M570.311 146.453L449.453 247.865L452.024 250.929L572.882 149.517L570.311 146.453ZM571.051 138L581.335 150.257L451.285 259.382L441 247.125L571.051 138Z" fill="#7D7D7D"/>
<path d="M875.044 142.969L810 197.547L820.285 209.804L885.329 155.226L875.044 142.969Z" fill="white"/>
<path fill-rule="evenodd" clip-rule="evenodd" d="M874.304 151.422L818.453 198.287L821.024 201.351L876.876 154.486L874.304 151.422ZM875.044 142.969L885.329 155.226L820.285 209.804L810 197.547L875.044 142.969Z" fill="#7D7D7D"/>
<path d="M885.329 298.578L820.285 244L810 256.257L875.044 310.835L885.329 298.578Z" fill="white"/>
<path fill-rule="evenodd" clip-rule="evenodd" d="M876.876 299.318L821.024 252.453L818.453 255.517L874.304 302.382L876.876 299.318ZM885.329 298.578L875.044 310.835L810 256.257L820.285 244L885.329 298.578Z" fill="#7D7D7D"/>
<path d="M762.676 385.297L594.285 244L584 256.257L752.391 397.554L762.676 385.297Z" fill="white"/>
<path fill-rule="evenodd" clip-rule="evenodd" d="M754.223 386.037L595.024 252.453L592.453 255.517L751.652 389.101L754.223 386.037ZM762.676 385.297L752.391 397.554L584 256.257L594.285 244L762.676 385.297Z" fill="#7D7D7D"/>
<path d="M699.311 458.6L541.285 326L531 338.257L689.026 470.856L699.311 458.6Z" fill="white"/>
<path fill-rule="evenodd" clip-rule="evenodd" d="M690.858 459.339L542.024 334.453L539.453 337.517L688.287 462.403L690.858 459.339ZM699.311 458.6L689.026 470.856L531 338.257L541.285 326L699.311 458.6Z" fill="#7D7D7D"/>
<path d="M699 138H571V154H699V138Z" fill="white"/>
<path fill-rule="evenodd" clip-rule="evenodd" d="M693 144H577V148H693V144ZM699 138V154H571V138H699Z" fill="#7D7D7D"/>
<path fill-rule="evenodd" clip-rule="evenodd" d="M693 148H698V144H693V148Z" fill="white"/>
<path d="M1364 143H875V159H1364V143Z" fill="white"/>
<path fill-rule="evenodd" clip-rule="evenodd" d="M1358 149H881V153H1358V149ZM1364 143V159H875V143H1364Z" fill="#7D7D7D"/>
<path d="M1111 382H753V398H1111V382Z" fill="white"/>
<path fill-rule="evenodd" clip-rule="evenodd" d="M1105 388H759V392H1105V388ZM1111 382V398H753V382H1111Z" fill="#7D7D7D"/>
<path d="M1287 295H875V311H1287V295Z" fill="white"/>
<path fill-rule="evenodd" clip-rule="evenodd" d="M1281 301H881V305H1281V301ZM1287 295V311H875V295H1287Z" fill="#7D7D7D"/>
<path d="M1259 455H689V471H1259V455Z" fill="white"/>
<path fill-rule="evenodd" clip-rule="evenodd" d="M1253 461H695V465H1253V461ZM1259 455V471H689V455H1259Z" fill="#7D7D7D"/>
<path d="M1156 196H622V212H1156V196Z" fill="white"/>
<path fill-rule="evenodd" clip-rule="evenodd" d="M1150 202H628V206H1150V202ZM1156 196V212H622V196H1156Z" fill="#7D7D7D"/>
<path d="M720 169C732.703 169 743 158.703 743 146C743 133.297 732.703 123 720 123C707.297 123 697 133.297 697 146C697 158.703 707.297 169 720 169Z" fill="white"/>
<path fill-rule="evenodd" clip-rule="evenodd" d="M720 159C727.18 159 733 153.18 733 146C733 138.82 727.18 133 720 133C712.82 133 707 138.82 707 146C707 153.18 712.82 159 720 159ZM743 146C743 158.703 732.703 169 720 169C707.297 169 697 158.703 697 146C697 133.297 707.297 123 720 123C732.703 123 743 133.297 743 146Z" fill="#7D7D7D"/>
<path d="M1385 174C1397.7 174 1408 163.703 1408 151C1408 138.297 1397.7 128 1385 128C1372.3 128 1362 138.297 1362 151C1362 163.703 1372.3 174 1385 174Z" fill="white"/>
<path fill-rule="evenodd" clip-rule="evenodd" d="M1385 164C1392.18 164 1398 158.18 1398 151C1398 143.82 1392.18 138 1385 138C1377.82 138 1372 143.82 1372 151C1372 158.18 1377.82 164 1385 164ZM1408 151C1408 163.703 1397.7 174 1385 174C1372.3 174 1362 163.703 1362 151C1362 138.297 1372.3 128 1385 128C1397.7 128 1408 138.297 1408 151Z" fill="#7D7D7D"/>
<path d="M1177 227C1189.7 227 1200 216.703 1200 204C1200 191.297 1189.7 181 1177 181C1164.3 181 1154 191.297 1154 204C1154 216.703 1164.3 227 1177 227Z" fill="white"/>
<path fill-rule="evenodd" clip-rule="evenodd" d="M1177 217C1184.18 217 1190 211.18 1190 204C1190 196.82 1184.18 191 1177 191C1169.82 191 1164 196.82 1164 204C1164 211.18 1169.82 217 1177 217ZM1200 204C1200 216.703 1189.7 227 1177 227C1164.3 227 1154 216.703 1154 204C1154 191.297 1164.3 181 1177 181C1189.7 181 1200 191.297 1200 204Z" fill="#7D7D7D"/>
<path d="M1308 326C1320.7 326 1331 315.703 1331 303C1331 290.297 1320.7 280 1308 280C1295.3 280 1285 290.297 1285 303C1285 315.703 1295.3 326 1308 326Z" fill="white"/>
<path fill-rule="evenodd" clip-rule="evenodd" d="M1308 316C1315.18 316 1321 310.18 1321 303C1321 295.82 1315.18 290 1308 290C1300.82 290 1295 295.82 1295 303C1295 310.18 1300.82 316 1308 316ZM1331 303C1331 315.703 1320.7 326 1308 326C1295.3 326 1285 315.703 1285 303C1285 290.297 1295.3 280 1308 280C1320.7 280 1331 290.297 1331 303Z" fill="#7D7D7D"/>
<path d="M1132 413C1144.7 413 1155 402.703 1155 390C1155 377.297 1144.7 367 1132 367C1119.3 367 1109 377.297 1109 390C1109 402.703 1119.3 413 1132 413Z" fill="white"/>
<path fill-rule="evenodd" clip-rule="evenodd" d="M1132 403C1139.18 403 1145 397.18 1145 390C1145 382.82 1139.18 377 1132 377C1124.82 377 1119 382.82 1119 390C1119 397.18 1124.82 403 1132 403ZM1155 390C1155 402.703 1144.7 413 1132 413C1119.3 413 1109 402.703 1109 390C1109 377.297 1119.3 367 1132 367C1144.7 367 1155 377.297 1155 390Z" fill="#7D7D7D"/>
<path d="M1280 486C1292.7 486 1303 475.703 1303 463C1303 450.297 1292.7 440 1280 440C1267.3 440 1257 450.297 1257 463C1257 475.703 1267.3 486 1280 486Z" fill="white"/>
<path fill-rule="evenodd" clip-rule="evenodd" d="M1280 476C1287.18 476 1293 470.18 1293 463C1293 455.82 1287.18 450 1280 450C1272.82 450 1267 455.82 1267 463C1267 470.18 1272.82 476 1280 476ZM1303 463C1303 475.703 1292.7 486 1280 486C1267.3 486 1257 475.703 1257 463C1257 450.297 1267.3 440 1280 440C1292.7 440 1303 450.297 1303 463Z" fill="#7D7D7D"/>
<path fill-rule="evenodd" clip-rule="evenodd" d="M242 343V325H310V343H242Z" fill="white"/>
<path fill-rule="evenodd" clip-rule="evenodd" d="M615 244L674.5 194H603.5L535.5 244L532.5 251.5L530 260L597 268L603.5 255.5L615 244Z" fill="white"/>
<path fill-rule="evenodd" clip-rule="evenodd" d="M653 213V195H733.5L736 197L738.5 199L742 202L748.5 208L753.189 213H653Z" fill="white"/>
<path fill-rule="evenodd" clip-rule="evenodd" d="M1014.33 399H864L858 395L847 385L843.152 381H1035.23L1027.24 388.875L1024 392L1019.5 395.5L1014.33 399Z" fill="white"/>
<path fill-rule="evenodd" clip-rule="evenodd" d="M877 293.5V290L820.5 243.5L820 244.5L814.5 260L874 311.5L878.5 312L877.5 303L877 293.5Z" fill="white"/>
<path fill-rule="evenodd" clip-rule="evenodd" d="M443 250V254H448.5L452.5 250.5L450.5 247L447 250H443Z" fill="white"/>
<path fill-rule="evenodd" clip-rule="evenodd" d="M577 144H573.5L570 146.71V151.931L574.5 148H577V144ZM463 250L459 254H448L452 250H463Z" fill="white"/>
<path fill-rule="evenodd" clip-rule="evenodd" d="M812 73H817V69H812V73Z" fill="white"/>
<path d="M839 94C851.703 94 862 83.7025 862 71C862 58.2975 851.703 48 839 48C826.297 48 816 58.2975 816 71C816 83.7025 826.297 94 839 94Z" fill="white"/>
<path fill-rule="evenodd" clip-rule="evenodd" d="M839 84C846.18 84 852 78.1797 852 71C852 63.8203 846.18 58 839 58C831.82 58 826 63.8203 826 71C826 78.1797 831.82 84 839 84ZM862 71C862 83.7025 851.703 94 839 94C826.297 94 816 83.7025 816 71C816 58.2975 826.297 48 839 48C851.703 48 862 58.2975 862 71Z" fill="#7D7D7D"/>
<path fill-rule="evenodd" clip-rule="evenodd" d="M1140.14 159.94L1140.14 142H1205.62V160L1140.14 159.94Z" fill="white"/>
<path fill-rule="evenodd" clip-rule="evenodd" d="M404 168L407 172H411L414 169.5L412 166L409.5 168H404Z" fill="white"/>
<path fill-rule="evenodd" clip-rule="evenodd" d="M532 73V69H527.5L523.5 72.5L526 75.5L529 73H532Z" fill="white"/>
<path fill-rule="evenodd" clip-rule="evenodd" d="M881 153V149H877L872.5 153L875 156L878 153H881Z" fill="white"/>
<path fill-rule="evenodd" clip-rule="evenodd" d="M542 334.5L539 332H535V333.5L532.5 336H538L539.5 337.5L542 334.5Z" fill="white"/>
<path fill-rule="evenodd" clip-rule="evenodd" d="M828 195.5L823 194.5L814 202H820.5L828 195.5Z" fill="white"/>
<path fill-rule="evenodd" clip-rule="evenodd" d="M877 304L878 305H881V301H879L877 298V304ZM811 254V250H819V254H811Z" fill="white"/>
<path fill-rule="evenodd" clip-rule="evenodd" d="M754.5 392H759V388H756L753 385L751.5 389L754.5 392Z" fill="white"/>
<path fill-rule="evenodd" clip-rule="evenodd" d="M686 460.5L688 457L693 461H695V465H691.5L686 460.5Z" fill="white"/>
<path fill-rule="evenodd" clip-rule="evenodd" d="M526 64V63H525.5L526 64Z" fill="#7D7D7D"/>
<path fill-rule="evenodd" clip-rule="evenodd" d="M526.424 63.1705C526.424 63.1812 526.425 63.1945 526.427 63.2286C526.428 63.23 526.428 63.2316 526.428 63.2331C526.43 63.262 526.433 63.3092 526.433 63.3595V63.4447C526.433 63.4447 526.433 63.4447 526.433 63.4447C526.435 63.4541 526.439 63.4742 526.442 63.4942C526.444 63.5057 526.446 63.5196 526.448 63.5354C526.45 63.5436 526.451 63.5527 526.453 63.5626C526.455 63.5759 526.457 63.5876 526.458 63.5969C526.459 63.604 526.459 63.6104 526.46 63.6157C526.471 63.6733 526.471 63.7204 526.471 63.7438C526.471 63.7593 526.471 63.7738 526.471 63.78C526.47 63.7805 526.47 63.7809 526.47 63.7812C526.47 63.7838 526.47 63.7853 526.47 63.7862V63.9777C526.47 64.0055 526.47 64.002 526.47 63.995C526.47 63.9922 526.469 63.9891 526.469 63.9871C526.469 63.987 526.469 63.9872 526.469 63.9871C526.469 63.986 526.469 63.9826 526.468 63.9781C526.467 63.9627 526.461 63.9293 526.447 63.8887C526.439 63.8679 526.424 63.8285 526.393 63.7837C526.383 63.7695 526.372 63.7549 526.359 63.7401C526.326 63.7019 526.279 63.6601 526.217 63.6278C526.205 63.6212 526.191 63.6149 526.178 63.6092C526.17 63.6061 526.162 63.6031 526.154 63.6002C526.121 63.5883 526.084 63.5794 526.044 63.5749L525.934 64.5688C525.777 64.5514 525.667 64.4685 525.604 64.3954C525.546 64.329 525.519 64.263 525.506 64.228C525.481 64.1583 525.475 64.0963 525.473 64.0727C525.469 64.023 525.47 63.9551 525.47 63.9781V63.7844C525.47 63.7793 525.47 63.7736 525.47 63.7689C525.47 63.764 525.469 63.7594 525.468 63.7553C525.467 63.7451 525.466 63.7357 525.465 63.7279C525.461 63.7063 525.456 63.6774 525.453 63.6433L525.451 63.6341C525.449 63.6228 525.445 63.5997 525.441 63.5746C525.437 63.5482 525.433 63.512 525.433 63.4699V63.3599C525.433 63.3497 525.433 63.3363 525.43 63.3019C525.43 63.3006 525.43 63.2992 525.43 63.2978C525.428 63.2687 525.424 63.2213 525.424 63.1705V62.9891L526.424 62.9883V63.1705ZM526.461 63.6396C526.461 63.6397 526.461 63.6397 526.461 63.6396ZM526.451 63.5774C526.45 63.5728 526.449 63.5682 526.447 63.5636Z" fill="#7D7D7D"/>
<path fill-rule="evenodd" clip-rule="evenodd" d="M412.267 176.588H413.267V176.741C413.267 176.744 413.268 176.75 413.27 176.759L413.278 176.806C413.281 176.825 413.285 176.85 413.288 176.878C413.289 176.883 413.289 176.887 413.29 176.892C413.295 176.936 413.304 177.01 413.304 177.088V177.496C413.304 177.532 413.301 177.564 413.3 177.586L413.296 177.63C413.307 177.712 413.302 177.784 413.3 177.817L413.298 177.846L413.296 177.864C413.296 177.87 413.295 177.872 413.295 177.872C413.295 177.872 413.296 177.871 413.296 177.868H412.296C412.296 177.835 412.298 177.805 412.299 177.786L412.301 177.76L412.302 177.748C412.291 177.664 412.296 177.593 412.299 177.554L412.301 177.524L412.303 177.504C412.303 177.499 412.304 177.496 412.304 177.495V177.088C412.304 177.071 412.302 177.055 412.295 176.992C412.294 176.984 412.293 176.979 412.291 176.967C412.289 176.958 412.287 176.945 412.283 176.924C412.277 176.887 412.267 176.823 412.267 176.748V176.588Z" fill="#7D7D7D"/>
<path fill-rule="evenodd" clip-rule="evenodd" d="M412.554 177.888C412.492 177.886 412.439 177.885 412.389 177.885V176.885C412.457 176.885 412.525 176.887 412.584 176.889L412.588 176.889C412.65 176.891 412.702 176.893 412.753 176.893C412.807 176.893 412.875 176.895 412.945 176.904C412.961 176.906 412.976 176.909 412.986 176.91L413.005 176.913C413.039 176.914 413.069 176.917 413.091 176.92C413.113 176.923 413.134 176.927 413.144 176.929C413.144 176.929 413.144 176.929 413.144 176.929L413.192 176.929C413.224 176.929 413.252 176.932 413.271 176.934C413.288 176.936 413.304 176.939 413.309 176.94C413.31 176.94 413.31 176.94 413.311 176.94C413.314 176.94 413.315 176.941 413.315 176.941C413.315 176.941 413.312 176.94 413.308 176.94C413.301 176.939 413.286 176.937 413.267 176.937V177.937C413.235 177.937 413.208 177.935 413.188 177.932C413.179 177.931 413.171 177.93 413.164 177.929H413.121C413.08 177.929 413.045 177.926 413.019 177.922C412.996 177.919 412.974 177.915 412.964 177.913C412.964 177.913 412.963 177.913 412.963 177.913C412.962 177.913 412.963 177.913 412.963 177.913C412.92 177.911 412.883 177.906 412.861 177.903C412.836 177.899 412.83 177.898 412.827 177.897C412.824 177.897 412.823 177.897 412.815 177.896C412.803 177.894 412.781 177.893 412.753 177.893C412.684 177.893 412.616 177.89 412.557 177.888L412.554 177.888Z" fill="#7D7D7D"/>
<path fill-rule="evenodd" clip-rule="evenodd" d="M752.001 397.055C751.984 397.044 751.95 397.024 751.913 396.997L752.516 396.199C752.51 396.194 752.506 396.191 752.506 396.191C752.506 396.191 752.507 396.192 752.512 396.195L752.533 396.208C752.543 396.213 752.556 396.221 752.57 396.23C752.579 396.236 752.588 396.242 752.596 396.247C752.633 396.271 752.659 396.288 752.686 396.303C752.698 396.31 752.705 396.314 752.715 396.319C752.726 396.324 752.739 396.332 752.766 396.346C752.806 396.367 752.866 396.401 752.928 396.45C752.965 396.479 752.998 396.508 753.023 396.53L753.026 396.533C753.052 396.555 753.069 396.57 753.086 396.583C753.104 396.598 753.128 396.615 753.169 396.643C753.173 396.645 753.176 396.647 753.18 396.65C753.216 396.674 753.267 396.708 753.316 396.746C753.322 396.75 753.332 396.758 753.345 396.767C753.384 396.796 753.448 396.844 753.494 396.883C753.495 396.883 753.501 396.888 753.523 396.902C753.526 396.903 753.529 396.905 753.532 396.907C753.553 396.92 753.592 396.945 753.631 396.973C753.644 396.978 753.662 396.986 753.682 396.997C753.694 397.004 753.719 397.018 753.747 397.039C753.747 397.039 753.748 397.04 753.748 397.04C753.765 397.052 753.843 397.111 753.896 397.218L753.002 397.665C753.022 397.705 753.044 397.736 753.063 397.759C753.074 397.772 753.083 397.782 753.09 397.789C753.113 397.813 753.134 397.829 753.147 397.839C753.172 397.858 753.194 397.87 753.203 397.875C753.222 397.886 753.236 397.891 753.239 397.893C753.244 397.894 753.252 397.898 753.269 397.903C753.211 397.886 753.167 397.863 753.147 397.851C753.122 397.838 753.103 397.825 753.09 397.816C753.069 397.802 753.039 397.778 753.046 397.783C753.039 397.778 753.032 397.774 753.005 397.757C753.001 397.755 752.997 397.752 752.992 397.749C752.961 397.729 752.906 397.695 752.851 397.648C752.827 397.628 752.811 397.616 752.787 397.599C752.768 397.585 752.744 397.567 752.707 397.539C752.685 397.522 752.66 397.505 752.618 397.477L752.612 397.473C752.572 397.446 752.514 397.407 752.456 397.36C752.425 397.335 752.395 397.309 752.372 397.289C752.37 397.287 752.368 397.286 752.366 397.284C752.342 397.263 752.326 397.249 752.311 397.237C752.309 397.236 752.303 397.232 752.292 397.226C752.284 397.222 752.277 397.219 752.268 397.214C752.263 397.211 752.257 397.208 752.25 397.204C752.233 397.195 752.21 397.183 752.186 397.17C752.135 397.14 752.084 397.107 752.047 397.083C752.04 397.079 752.034 397.075 752.028 397.071C752.029 397.071 752.028 397.071 752.028 397.071C752.028 397.071 752.027 397.07 752.023 397.068L752.001 397.055Z" fill="#7D7D7D"/>
<path fill-rule="evenodd" clip-rule="evenodd" d="M752.921 397.455C752.914 397.451 752.908 397.447 752.902 397.443C752.899 397.441 752.896 397.439 752.893 397.437C752.893 397.437 752.893 397.437 752.893 397.437C752.892 397.436 752.891 397.435 752.889 397.434C752.889 397.434 752.889 397.434 752.888 397.434C752.884 397.431 752.88 397.428 752.876 397.424C752.875 397.423 752.874 397.423 752.873 397.422C752.872 397.42 752.87 397.419 752.868 397.418C752.864 397.414 752.859 397.41 752.854 397.405C752.853 397.404 752.852 397.404 752.851 397.403C752.852 397.403 752.851 397.403 752.851 397.403C752.851 397.402 752.85 397.402 752.85 397.401C752.846 397.398 752.843 397.394 752.84 397.391C752.836 397.388 752.833 397.385 752.831 397.381C752.831 397.381 752.83 397.381 752.831 397.381C752.83 397.38 752.829 397.379 752.828 397.378C752.825 397.375 752.822 397.371 752.819 397.368C752.817 397.365 752.815 397.363 752.813 397.361C752.813 397.36 752.813 397.36 752.812 397.359C752.811 397.356 752.809 397.353 752.807 397.35C752.807 397.351 752.807 397.35 752.807 397.35C752.802 397.34 752.797 397.331 752.793 397.323C752.791 397.318 752.789 397.314 752.788 397.31C752.786 397.308 752.785 397.305 752.784 397.302C752.784 397.301 752.784 397.301 752.783 397.3C752.782 397.297 752.781 397.295 752.78 397.292C752.776 397.28 752.773 397.269 752.771 397.261C752.77 397.259 752.77 397.257 752.769 397.255C752.769 397.253 752.768 397.251 752.768 397.249C752.768 397.248 752.768 397.247 752.767 397.247C752.766 397.241 752.765 397.237 752.765 397.233C752.764 397.23 752.764 397.228 752.764 397.227C752.763 397.217 752.762 397.208 752.762 397.197C752.762 397.191 752.762 397.184 752.762 397.177C752.762 397.17 752.763 397.163 752.764 397.155C752.764 397.152 752.764 397.149 752.765 397.146C752.765 397.145 752.765 397.144 752.765 397.142C752.766 397.141 752.766 397.14 752.766 397.139C752.768 397.124 752.772 397.109 752.777 397.094C752.778 397.092 752.778 397.09 752.779 397.089C752.79 397.078 752.801 397.068 752.812 397.06C752.813 397.059 752.815 397.058 752.816 397.057C752.826 397.049 752.835 397.043 752.844 397.036C752.848 397.035 752.851 397.034 752.855 397.034C752.863 397.031 752.871 397.029 752.879 397.028C752.881 397.027 752.883 397.027 752.886 397.026C752.893 397.025 752.905 397.023 752.921 397.022C752.926 397.022 752.931 397.021 752.937 397.021M753.007 396.977C753.008 396.977 753.008 396.977 753.009 396.977C753.01 396.976 753.011 396.976 753.012 396.976C753.012 396.976 753.013 396.976 753.013 396.976C753.013 396.976 753.013 396.976 753.013 396.976C753.014 396.976 753.016 396.976 753.017 396.976C753.026 396.977 753.036 396.979 753.045 396.98C753.046 396.98 753.047 396.981 753.048 396.981C753.052 396.981 753.056 396.982 753.06 396.983C753.061 396.983 753.061 396.983 753.062 396.984C753.069 396.985 753.075 396.987 753.082 396.988C753.083 396.989 753.084 396.989 753.084 396.989C753.09 396.991 753.095 396.992 753.1 396.994C753.104 396.995 753.108 396.997 753.113 396.998C753.114 396.998 753.115 396.999 753.116 396.999C753.122 397.001 753.127 397.003 753.132 397.005C753.135 397.006 753.137 397.007 753.14 397.009C753.146 397.011 753.152 397.014 753.158 397.017C753.161 397.019 753.165 397.02 753.168 397.022C753.172 397.024 753.176 397.027 753.181 397.029C753.186 397.032 753.191 397.035 753.196 397.038C753.199 397.04 753.202 397.042 753.205 397.044C753.207 397.045 753.209 397.047 753.211 397.048C753.212 397.048 753.212 397.049 753.213 397.049C753.215 397.051 753.217 397.052 753.219 397.053C753.221 397.055 753.223 397.056 753.225 397.058C753.225 397.058 753.226 397.058 753.226 397.059C753.226 397.059 753.226 397.059 753.226 397.059C753.228 397.06 753.23 397.062 753.232 397.063C753.242 397.071 753.251 397.078 753.259 397.086C753.261 397.087 753.262 397.089 753.264 397.09C753.264 397.09 753.264 397.091 753.265 397.091C753.271 397.097 753.278 397.104 753.283 397.11C753.285 397.111 753.287 397.113 753.288 397.115C753.295 397.122 753.302 397.13 753.307 397.137C753.313 397.143 753.318 397.15 753.322 397.156C753.322 397.156 753.322 397.156 753.322 397.156C753.324 397.159 753.326 397.162 753.328 397.164C753.342 397.185 753.353 397.204 753.361 397.22C753.364 397.225 753.366 397.229 753.368 397.233C753.368 397.234 753.369 397.236 753.369 397.236C753.374 397.247 753.378 397.258 753.382 397.271L753.358 397.28L753.353 397.276C753.352 397.275 753.352 397.274 753.351 397.273C753.347 397.265 753.343 397.257 753.339 397.25C753.337 397.247 753.336 397.245 753.334 397.243C753.334 397.242 753.333 397.241 753.333 397.24C753.332 397.238 753.33 397.236 753.329 397.233C753.316 397.214 753.303 397.196 753.288 397.179C753.283 397.174 753.278 397.168 753.273 397.162C753.273 397.162 753.273 397.163 753.273 397.162C753.271 397.161 753.269 397.159 753.268 397.157C753.265 397.155 753.263 397.152 753.26 397.15C753.257 397.147 753.255 397.145 753.252 397.142C753.246 397.137 753.24 397.131 753.234 397.126C753.234 397.126 753.234 397.126 753.234 397.126C753.229 397.122 753.224 397.119 753.22 397.115C753.216 397.112 753.212 397.109 753.208 397.106C753.205 397.104 753.201 397.102 753.198 397.099C753.198 397.099 753.198 397.099 753.197 397.099C753.196 397.098 753.196 397.098 753.195 397.097C753.194 397.096 753.193 397.096 753.192 397.095C753.189 397.093 753.187 397.092 753.184 397.09C753.183 397.089 753.182 397.089 753.181 397.088C753.179 397.087 753.178 397.086 753.177 397.086C753.171 397.082 753.166 397.079 753.16 397.076C753.157 397.074 753.154 397.073 753.15 397.071C753.149 397.07 753.147 397.069 753.146 397.069C753.145 397.068 753.145 397.068 753.144 397.068C753.143 397.067 753.141 397.066 753.14 397.066C753.136 397.064 753.131 397.062 753.127 397.06C753.125 397.059 753.122 397.058 753.119 397.056C753.119 397.056 753.12 397.056 753.119 397.056C753.117 397.056 753.115 397.055 753.113 397.054C753.111 397.053 753.109 397.052 753.107 397.051C753.107 397.051 753.107 397.051 753.107 397.051C753.105 397.05 753.102 397.05 753.1 397.049C753.095 397.047 753.089 397.045 753.084 397.043L753.007 396.977ZM753.225 397.334L753.355 397.281ZM752.402 397.405C752.401 397.364 752.405 397.322 752.414 397.279C752.426 397.184 752.461 397.107 752.497 397.051C752.501 397.037 752.506 397.022 752.512 397.008C752.525 396.876 752.585 396.74 752.71 396.638C752.834 396.536 752.965 396.519 753.016 396.514C753.047 396.511 753.072 396.511 753.085 396.511L753.1 396.512C753.101 396.512 753.103 396.512 753.105 396.512C753.154 396.511 753.363 396.51 753.539 396.677C753.582 396.717 753.616 396.76 753.642 396.804C753.675 396.849 753.696 396.892 753.71 396.923C753.743 397.002 753.753 397.075 753.756 397.101C753.773 397.239 753.751 397.398 753.667 397.54C753.646 397.576 753.62 397.61 753.591 397.642C753.567 397.695 753.531 397.752 753.477 397.805C753.404 397.877 753.325 397.915 753.261 397.936C753.205 397.971 753.143 397.994 753.081 398.007L753.08 398.007C753.04 398.016 752.877 398.049 752.704 397.966C752.457 397.846 752.399 397.609 752.399 397.467C752.399 397.446 752.4 397.425 752.402 397.405ZM753.703 397.37C753.702 397.378 753.7 397.387 753.697 397.395C753.691 397.419 753.677 397.465 753.648 397.517M753.355 397.281C753.354 397.28 753.354 397.278 753.353 397.276L753.084 397.043C753.075 397.04 753.065 397.037 753.057 397.035C753.055 397.035 753.054 397.034 753.053 397.034C753.05 397.033 753.047 397.033 753.045 397.032C753.044 397.032 753.043 397.032 753.043 397.032C753.039 397.031 753.035 397.03 753.031 397.029C753.027 397.028 753.023 397.028 753.019 397.027C753.017 397.027 753.016 397.026 753.014 397.026C753.014 397.026 753.014 397.026 753.014 397.026C753.014 397.026 753.012 397.026 753.012 397.026C753.009 397.025 753.007 397.025 753.004 397.025C753.003 397.025 753.001 397.024 753 397.024C752.998 397.024 752.997 397.024 752.995 397.024M752.964 397.438L752.921 397.455ZM753.225 397.334L753.224 397.334ZM753.224 397.334L753.219 397.336ZM753.219 397.336L753.213 397.338ZM753.213 397.338L753.21 397.339ZM753.21 397.339L753.204 397.342ZM753.204 397.342L753.183 397.35ZM753.183 397.35L753.177 397.353ZM753.177 397.353L753.137 397.369ZM753.137 397.369L753.136 397.369ZM753.136 397.369L753.13 397.371ZM753.13 397.371L753.12 397.375ZM753.12 397.375L753.118 397.376ZM753.118 397.376L753.116 397.377ZM753.116 397.377L753.113 397.378ZM753.113 397.378L753.112 397.379ZM752.937 397.021C752.94 397.021 752.943 397.021 752.946 397.021ZM752.946 397.021C752.948 397.021 752.95 397.021 752.953 397.021ZM752.953 397.021C752.954 397.021 752.956 397.021 752.958 397.021ZM752.958 397.021C752.96 397.021 752.962 397.021 752.964 397.021ZM752.964 397.021C752.973 397.022 752.983 397.022 752.995 397.024Z" fill="#7D7D7D"/>
</svg>
