<svg width="1098" height="391" viewBox="0 0 1098 391" fill="none" xmlns="http://www.w3.org/2000/svg">
<mask id="path-1-outside-1_0_1" maskUnits="userSpaceOnUse" x="677.825" y="179.999" width="143.176" height="146.172" fill="black">
<rect fill="white" x="677.825" y="179.999" width="143.176" height="146.172"/>
<path d="M748.989 181.084L748.528 181.084C738.847 181.072 729.635 183.155 721.301 186.918L721.733 186.745C713.446 190.397 705.904 195.628 699.505 202.161C693.248 208.597 688.211 216.176 684.652 224.509L684.471 224.983C680.785 233.663 678.893 243.036 678.914 252.508L678.914 253.024L678.914 253L678.913 253.474C678.901 263.433 680.925 272.909 684.583 281.48L684.415 281.036C687.963 289.557 693.043 297.312 699.388 303.894C705.647 310.33 713.016 315.51 721.119 319.171L721.579 319.358C729.472 322.967 738.679 325.072 748.361 325.084L748.845 325.084L748.821 325.084L749.282 325.085C758.964 325.096 768.176 323.014 776.509 319.25L776.077 319.423C784.366 315.773 791.909 310.544 798.311 304.013C804.568 297.577 809.605 289.998 813.164 281.665L813.346 281.191C816.855 273.072 818.902 263.608 818.914 253.642L818.915 252.695C818.927 242.735 816.903 233.26 813.245 224.688L813.413 225.132C809.861 216.614 804.779 208.861 798.434 202.28C792.177 195.845 784.81 190.664 776.709 187.003L776.249 186.817C768.356 183.207 759.143 181.097 749.456 181.085L748.972 181.084L748.995 181.084L748.989 181.084ZM752.557 317.817L752.572 305.296L782.879 289.536C783.235 289.357 783.543 289.092 783.778 288.763L783.784 288.757C784.01 288.42 784.13 288.021 784.129 287.612L784.129 287.546L784.129 287.552L784.138 280.436C785.451 279.946 786.542 279.083 787.308 277.968L787.32 277.944C788.097 276.871 788.571 275.522 788.572 274.058L788.573 273.35C788.433 271.636 787.673 270.038 786.444 268.872L786.438 268.866C785.257 267.717 783.692 267.078 782.066 267.079L781.938 267.079L781.943 267.079L781.827 267.079C780.03 267.077 778.402 267.836 777.24 269.065C776.043 270.263 775.3 271.93 775.298 273.784L775.298 273.91L775.298 273.904L775.298 274.258C775.309 274.438 775.361 274.6 775.437 274.744L775.437 274.738C775.511 276.07 775.994 277.277 776.757 278.238L776.751 278.226C777.525 279.204 778.522 279.962 779.67 280.413L779.717 280.431L779.71 286.125L752.578 300.323L752.592 288.672L764.491 282.992C764.862 282.802 765.191 282.537 765.46 282.214L765.466 282.208C765.734 281.883 765.882 281.47 765.882 281.044L765.905 261.648L788.043 248.872C788.4 248.689 788.691 248.393 788.872 248.027L788.878 248.015C789.057 247.665 789.152 247.276 789.153 246.881L789.16 241.476C790.461 241.003 791.547 240.171 792.33 239.098L792.341 239.08C793.118 238.019 793.592 236.675 793.594 235.218L793.594 234.978C793.597 233.13 792.858 231.455 791.664 230.26C791.082 229.628 790.382 229.125 789.605 228.782C788.828 228.439 787.992 228.262 787.146 228.262L786.26 228.261C784.657 228.421 783.175 229.205 782.116 230.452L782.11 230.458C781.035 231.686 780.441 233.28 780.442 234.932L780.442 235.082L780.442 235.076L780.442 235.196C780.44 236.654 780.905 237.992 781.697 239.073L781.686 239.055C782.483 240.148 783.561 240.983 784.821 241.44L784.867 241.458L784.862 245.586L762.579 258.362C762.285 258.571 762.029 258.833 761.825 259.135L761.82 259.147C761.611 259.475 761.499 259.859 761.497 260.251L761.497 260.353L761.497 260.347L761.474 279.545L752.604 283.8L752.654 241.972L771.329 232.599C771.698 232.409 772.007 232.116 772.223 231.754L772.228 231.742C772.448 231.407 772.568 231.013 772.574 230.609L772.583 223.349C773.884 222.877 774.97 222.044 775.753 220.971L775.764 220.953C776.541 219.892 777.015 218.549 777.017 217.091L777.017 216.965L777.017 216.971L777.018 216.605C777.018 216.541 777.006 216.478 776.982 216.419C776.958 216.36 776.923 216.307 776.878 216.263C776.71 214.603 775.952 213.066 774.749 211.947L774.743 211.941C773.589 210.793 772.046 210.152 770.441 210.154L769.694 210.153C768.067 210.333 766.568 211.142 765.498 212.416L765.492 212.422C764.376 213.647 763.755 215.264 763.754 216.943L763.753 217.681C763.938 219.043 764.45 220.25 765.213 221.258L765.201 221.24C765.941 222.243 766.955 222.988 768.127 223.368L768.168 223.38L768.16 229.211L752.66 237.016L752.689 212.814C754.002 212.324 755.094 211.461 755.859 210.346L755.871 210.322C756.648 209.249 757.122 207.9 757.124 206.436L757.124 206.292C757.126 204.444 756.388 202.769 755.193 201.574C754.598 200.942 753.885 200.439 753.097 200.096C752.309 199.753 751.461 199.576 750.606 199.577L750.483 199.577L750.489 199.577L750.372 199.576C748.576 199.574 746.948 200.334 745.786 201.563C744.589 202.761 743.846 204.428 743.844 206.282L743.844 206.408L743.844 206.402L743.843 207.11C744.016 208.448 744.534 209.637 745.297 210.609L745.285 210.597C746.059 211.576 747.056 212.333 748.204 212.785L748.251 212.803L748.203 252.213L737.281 246.225L737.302 228.256C737.302 227.915 737.205 227.581 737.024 227.296L737.029 227.302C736.866 227.048 736.681 226.809 736.476 226.587L728.866 220.591C729.051 220.218 729.188 219.823 729.276 219.415L729.282 219.379C729.37 218.978 729.423 218.522 729.424 218.048L729.424 217.904C729.426 216.056 728.687 214.381 727.493 213.186C726.897 212.556 726.185 212.055 725.398 211.713C724.611 211.371 723.765 211.195 722.911 211.194L722.824 211.194L722.829 211.194L722.713 211.194C720.916 211.192 719.288 211.952 718.126 213.18C716.929 214.379 716.186 216.046 716.184 217.9L716.184 218.026L716.184 218.02L716.184 218.164C716.182 219.994 716.909 221.65 718.08 222.846C719.245 224.077 720.865 224.841 722.667 224.843L722.79 224.843L722.784 224.843L722.871 224.843C723.443 224.845 724.012 224.747 724.551 224.551L724.516 224.563C725.158 224.318 725.684 224.079 726.191 223.815L726.104 223.857L732.874 229.415L732.852 247.623C732.85 248.009 732.973 248.385 733.201 248.692L733.195 248.686C733.426 249.013 733.729 249.279 734.081 249.461L734.092 249.467L748.192 257.163L748.174 271.676L724.537 260.404L724.962 251.585L724.962 251.441C724.965 251.055 724.842 250.68 724.614 250.373L724.619 250.379C724.389 250.051 724.085 249.786 723.734 249.604L723.722 249.598L712.934 243.766C713.027 243.461 713.075 243.143 713.075 242.824L713.076 241.624C712.908 239.964 712.15 238.427 710.947 237.308L710.941 237.302C709.757 236.147 708.188 235.503 706.557 235.503L706.452 235.503L706.458 235.503L706.417 235.502C704.638 235.5 703.033 236.26 701.895 237.489C700.68 238.687 699.92 240.372 699.917 242.238L699.917 242.328L699.917 242.322L699.916 243.03C700.084 244.74 700.869 246.235 702.046 247.292L702.052 247.298C703.176 248.361 704.68 249.011 706.337 249.013L707.101 249.014C707.759 248.927 708.405 248.761 709.026 248.519L708.968 248.536C709.574 248.297 710.106 247.986 710.573 247.602L710.561 247.614L720.51 252.906L720.226 261.725L720.226 261.773C720.225 262.223 720.324 262.643 720.504 263.021L720.498 263.003C720.704 263.398 721.044 263.702 721.454 263.856L721.465 263.862L748.145 276.697L748.095 317.908C746.898 317.906 745.721 317.857 744.567 317.76L741.039 317.473L741.484 291.292C741.479 290.883 741.358 290.485 741.136 290.146L741.141 290.152C740.898 289.764 740.541 289.465 740.122 289.299L740.11 289.293L723.381 281.305L723.382 280.555C723.384 278.725 722.645 277.075 721.451 275.903C720.855 275.271 720.142 274.769 719.354 274.425C718.566 274.082 717.719 273.906 716.863 273.906L716.741 273.906L716.747 273.906L716.082 273.905C714.479 274.065 712.997 274.849 711.938 276.096L711.932 276.102C710.858 277.329 710.263 278.923 710.265 280.575L710.264 280.725L710.264 280.719L710.264 280.761C710.262 282.591 711.001 284.242 712.195 285.413C713.331 286.645 714.934 287.408 716.713 287.411L716.94 287.411C717.85 287.412 718.719 287.215 719.501 286.85L719.461 286.868C720.278 286.467 720.984 285.988 721.614 285.419L721.603 285.431L737.085 292.709L737.056 316.755C729.774 315.351 722.795 312.613 716.454 308.672L716.734 308.835C710.613 305.09 705.151 300.308 700.577 294.692L700.496 294.59C695.991 289 692.405 282.689 689.88 275.907L689.729 275.451C687.106 268.363 685.779 260.838 685.813 253.254L685.814 252.588C685.825 243.625 687.666 235.102 690.977 227.391L690.825 227.792C694.045 220.098 698.653 213.101 704.404 207.17C710.073 201.377 716.742 196.722 724.07 193.443L724.484 193.276C732.102 189.87 740.325 188.131 748.631 188.169L748.986 188.17L748.969 188.17L749.342 188.17C758.056 188.181 766.341 190.074 773.838 193.479L773.447 193.323C780.923 196.63 787.725 201.361 793.494 207.266C799.136 213.093 803.669 219.953 806.86 227.494L807.023 227.92C810.164 235.231 811.985 243.759 811.974 252.728L811.974 253.13L811.974 253.112L811.973 253.496C811.963 262.159 810.25 270.413 807.161 277.92L807.314 277.506C804.307 284.985 800 291.837 794.604 297.727L794.633 297.692C789.334 303.444 783.059 308.154 776.116 311.588L775.736 311.756C768.967 315.155 761.055 317.329 752.703 317.781L752.551 317.787L752.557 317.817Z"/>
</mask>
<path d="M748.989 181.084L748.528 181.084C738.847 181.072 729.635 183.155 721.301 186.918L721.733 186.745C713.446 190.397 705.904 195.628 699.505 202.161C693.248 208.597 688.211 216.176 684.652 224.509L684.471 224.983C680.785 233.663 678.893 243.036 678.914 252.508L678.914 253.024L678.914 253L678.913 253.474C678.901 263.433 680.925 272.909 684.583 281.48L684.415 281.036C687.963 289.557 693.043 297.312 699.388 303.894C705.647 310.33 713.016 315.51 721.119 319.171L721.579 319.358C729.472 322.967 738.679 325.072 748.361 325.084L748.845 325.084L748.821 325.084L749.282 325.085C758.964 325.096 768.176 323.014 776.509 319.25L776.077 319.423C784.366 315.773 791.909 310.544 798.311 304.013C804.568 297.577 809.605 289.998 813.164 281.665L813.346 281.191C816.855 273.072 818.902 263.608 818.914 253.642L818.915 252.695C818.927 242.735 816.903 233.26 813.245 224.688L813.413 225.132C809.861 216.614 804.779 208.861 798.434 202.28C792.177 195.845 784.81 190.664 776.709 187.003L776.249 186.817C768.356 183.207 759.143 181.097 749.456 181.085L748.972 181.084L748.995 181.084L748.989 181.084ZM752.557 317.817L752.572 305.296L782.879 289.536C783.235 289.357 783.543 289.092 783.778 288.763L783.784 288.757C784.01 288.42 784.13 288.021 784.129 287.612L784.129 287.546L784.129 287.552L784.138 280.436C785.451 279.946 786.542 279.083 787.308 277.968L787.32 277.944C788.097 276.871 788.571 275.522 788.572 274.058L788.573 273.35C788.433 271.636 787.673 270.038 786.444 268.872L786.438 268.866C785.257 267.717 783.692 267.078 782.066 267.079L781.938 267.079L781.943 267.079L781.827 267.079C780.03 267.077 778.402 267.836 777.24 269.065C776.043 270.263 775.3 271.93 775.298 273.784L775.298 273.91L775.298 273.904L775.298 274.258C775.309 274.438 775.361 274.6 775.437 274.744L775.437 274.738C775.511 276.07 775.994 277.277 776.757 278.238L776.751 278.226C777.525 279.204 778.522 279.962 779.67 280.413L779.717 280.431L779.71 286.125L752.578 300.323L752.592 288.672L764.491 282.992C764.862 282.802 765.191 282.537 765.46 282.214L765.466 282.208C765.734 281.883 765.882 281.47 765.882 281.044L765.905 261.648L788.043 248.872C788.4 248.689 788.691 248.393 788.872 248.027L788.878 248.015C789.057 247.665 789.152 247.276 789.153 246.881L789.16 241.476C790.461 241.003 791.547 240.171 792.33 239.098L792.341 239.08C793.118 238.019 793.592 236.675 793.594 235.218L793.594 234.978C793.597 233.13 792.858 231.455 791.664 230.26C791.082 229.628 790.382 229.125 789.605 228.782C788.828 228.439 787.992 228.262 787.146 228.262L786.26 228.261C784.657 228.421 783.175 229.205 782.116 230.452L782.11 230.458C781.035 231.686 780.441 233.28 780.442 234.932L780.442 235.082L780.442 235.076L780.442 235.196C780.44 236.654 780.905 237.992 781.697 239.073L781.686 239.055C782.483 240.148 783.561 240.983 784.821 241.44L784.867 241.458L784.862 245.586L762.579 258.362C762.285 258.571 762.029 258.833 761.825 259.135L761.82 259.147C761.611 259.475 761.499 259.859 761.497 260.251L761.497 260.353L761.497 260.347L761.474 279.545L752.604 283.8L752.654 241.972L771.329 232.599C771.698 232.409 772.007 232.116 772.223 231.754L772.228 231.742C772.448 231.407 772.568 231.013 772.574 230.609L772.583 223.349C773.884 222.877 774.97 222.044 775.753 220.971L775.764 220.953C776.541 219.892 777.015 218.549 777.017 217.091L777.017 216.965L777.017 216.971L777.018 216.605C777.018 216.541 777.006 216.478 776.982 216.419C776.958 216.36 776.923 216.307 776.878 216.263C776.71 214.603 775.952 213.066 774.749 211.947L774.743 211.941C773.589 210.793 772.046 210.152 770.441 210.154L769.694 210.153C768.067 210.333 766.568 211.142 765.498 212.416L765.492 212.422C764.376 213.647 763.755 215.264 763.754 216.943L763.753 217.681C763.938 219.043 764.45 220.25 765.213 221.258L765.201 221.24C765.941 222.243 766.955 222.988 768.127 223.368L768.168 223.38L768.16 229.211L752.66 237.016L752.689 212.814C754.002 212.324 755.094 211.461 755.859 210.346L755.871 210.322C756.648 209.249 757.122 207.9 757.124 206.436L757.124 206.292C757.126 204.444 756.388 202.769 755.193 201.574C754.598 200.942 753.885 200.439 753.097 200.096C752.309 199.753 751.461 199.576 750.606 199.577L750.483 199.577L750.489 199.577L750.372 199.576C748.576 199.574 746.948 200.334 745.786 201.563C744.589 202.761 743.846 204.428 743.844 206.282L743.844 206.408L743.844 206.402L743.843 207.11C744.016 208.448 744.534 209.637 745.297 210.609L745.285 210.597C746.059 211.576 747.056 212.333 748.204 212.785L748.251 212.803L748.203 252.213L737.281 246.225L737.302 228.256C737.302 227.915 737.205 227.581 737.024 227.296L737.029 227.302C736.866 227.048 736.681 226.809 736.476 226.587L728.866 220.591C729.051 220.218 729.188 219.823 729.276 219.415L729.282 219.379C729.37 218.978 729.423 218.522 729.424 218.048L729.424 217.904C729.426 216.056 728.687 214.381 727.493 213.186C726.897 212.556 726.185 212.055 725.398 211.713C724.611 211.371 723.765 211.195 722.911 211.194L722.824 211.194L722.829 211.194L722.713 211.194C720.916 211.192 719.288 211.952 718.126 213.18C716.929 214.379 716.186 216.046 716.184 217.9L716.184 218.026L716.184 218.02L716.184 218.164C716.182 219.994 716.909 221.65 718.08 222.846C719.245 224.077 720.865 224.841 722.667 224.843L722.79 224.843L722.784 224.843L722.871 224.843C723.443 224.845 724.012 224.747 724.551 224.551L724.516 224.563C725.158 224.318 725.684 224.079 726.191 223.815L726.104 223.857L732.874 229.415L732.852 247.623C732.85 248.009 732.973 248.385 733.201 248.692L733.195 248.686C733.426 249.013 733.729 249.279 734.081 249.461L734.092 249.467L748.192 257.163L748.174 271.676L724.537 260.404L724.962 251.585L724.962 251.441C724.965 251.055 724.842 250.68 724.614 250.373L724.619 250.379C724.389 250.051 724.085 249.786 723.734 249.604L723.722 249.598L712.934 243.766C713.027 243.461 713.075 243.143 713.075 242.824L713.076 241.624C712.908 239.964 712.15 238.427 710.947 237.308L710.941 237.302C709.757 236.147 708.188 235.503 706.557 235.503L706.452 235.503L706.458 235.503L706.417 235.502C704.638 235.5 703.033 236.26 701.895 237.489C700.68 238.687 699.92 240.372 699.917 242.238L699.917 242.328L699.917 242.322L699.916 243.03C700.084 244.74 700.869 246.235 702.046 247.292L702.052 247.298C703.176 248.361 704.68 249.011 706.337 249.013L707.101 249.014C707.759 248.927 708.405 248.761 709.026 248.519L708.968 248.536C709.574 248.297 710.106 247.986 710.573 247.602L710.561 247.614L720.51 252.906L720.226 261.725L720.226 261.773C720.225 262.223 720.324 262.643 720.504 263.021L720.498 263.003C720.704 263.398 721.044 263.702 721.454 263.856L721.465 263.862L748.145 276.697L748.095 317.908C746.898 317.906 745.721 317.857 744.567 317.76L741.039 317.473L741.484 291.292C741.479 290.883 741.358 290.485 741.136 290.146L741.141 290.152C740.898 289.764 740.541 289.465 740.122 289.299L740.11 289.293L723.381 281.305L723.382 280.555C723.384 278.725 722.645 277.075 721.451 275.903C720.855 275.271 720.142 274.769 719.354 274.425C718.566 274.082 717.719 273.906 716.863 273.906L716.741 273.906L716.747 273.906L716.082 273.905C714.479 274.065 712.997 274.849 711.938 276.096L711.932 276.102C710.858 277.329 710.263 278.923 710.265 280.575L710.264 280.725L710.264 280.719L710.264 280.761C710.262 282.591 711.001 284.242 712.195 285.413C713.331 286.645 714.934 287.408 716.713 287.411L716.94 287.411C717.85 287.412 718.719 287.215 719.501 286.85L719.461 286.868C720.278 286.467 720.984 285.988 721.614 285.419L721.603 285.431L737.085 292.709L737.056 316.755C729.774 315.351 722.795 312.613 716.454 308.672L716.734 308.835C710.613 305.09 705.151 300.308 700.577 294.692L700.496 294.59C695.991 289 692.405 282.689 689.88 275.907L689.729 275.451C687.106 268.363 685.779 260.838 685.813 253.254L685.814 252.588C685.825 243.625 687.666 235.102 690.977 227.391L690.825 227.792C694.045 220.098 698.653 213.101 704.404 207.17C710.073 201.377 716.742 196.722 724.07 193.443L724.484 193.276C732.102 189.87 740.325 188.131 748.631 188.169L748.986 188.17L748.969 188.17L749.342 188.17C758.056 188.181 766.341 190.074 773.838 193.479L773.447 193.323C780.923 196.63 787.725 201.361 793.494 207.266C799.136 213.093 803.669 219.953 806.86 227.494L807.023 227.92C810.164 235.231 811.985 243.759 811.974 252.728L811.974 253.13L811.974 253.112L811.973 253.496C811.963 262.159 810.25 270.413 807.161 277.92L807.314 277.506C804.307 284.985 800 291.837 794.604 297.727L794.633 297.692C789.334 303.444 783.059 308.154 776.116 311.588L775.736 311.756C768.967 315.155 761.055 317.329 752.703 317.781L752.551 317.787L752.557 317.817Z" fill="#015049"/>
<path d="M748.989 181.084L748.528 181.084C738.847 181.072 729.635 183.155 721.301 186.918L721.733 186.745C713.446 190.397 705.904 195.628 699.505 202.161C693.248 208.597 688.211 216.176 684.652 224.509L684.471 224.983C680.785 233.663 678.893 243.036 678.914 252.508L678.914 253.024L678.914 253L678.913 253.474C678.901 263.433 680.925 272.909 684.583 281.48L684.415 281.036C687.963 289.557 693.043 297.312 699.388 303.894C705.647 310.33 713.016 315.51 721.119 319.171L721.579 319.358C729.472 322.967 738.679 325.072 748.361 325.084L748.845 325.084L748.821 325.084L749.282 325.085C758.964 325.096 768.176 323.014 776.509 319.25L776.077 319.423C784.366 315.773 791.909 310.544 798.311 304.013C804.568 297.577 809.605 289.998 813.164 281.665L813.346 281.191C816.855 273.072 818.902 263.608 818.914 253.642L818.915 252.695C818.927 242.735 816.903 233.26 813.245 224.688L813.413 225.132C809.861 216.614 804.779 208.861 798.434 202.28C792.177 195.845 784.81 190.664 776.709 187.003L776.249 186.817C768.356 183.207 759.143 181.097 749.456 181.085L748.972 181.084L748.995 181.084L748.989 181.084ZM752.557 317.817L752.572 305.296L782.879 289.536C783.235 289.357 783.543 289.092 783.778 288.763L783.784 288.757C784.01 288.42 784.13 288.021 784.129 287.612L784.129 287.546L784.129 287.552L784.138 280.436C785.451 279.946 786.542 279.083 787.308 277.968L787.32 277.944C788.097 276.871 788.571 275.522 788.572 274.058L788.573 273.35C788.433 271.636 787.673 270.038 786.444 268.872L786.438 268.866C785.257 267.717 783.692 267.078 782.066 267.079L781.938 267.079L781.943 267.079L781.827 267.079C780.03 267.077 778.402 267.836 777.24 269.065C776.043 270.263 775.3 271.93 775.298 273.784L775.298 273.91L775.298 273.904L775.298 274.258C775.309 274.438 775.361 274.6 775.437 274.744L775.437 274.738C775.511 276.07 775.994 277.277 776.757 278.238L776.751 278.226C777.525 279.204 778.522 279.962 779.67 280.413L779.717 280.431L779.71 286.125L752.578 300.323L752.592 288.672L764.491 282.992C764.862 282.802 765.191 282.537 765.46 282.214L765.466 282.208C765.734 281.883 765.882 281.47 765.882 281.044L765.905 261.648L788.043 248.872C788.4 248.689 788.691 248.393 788.872 248.027L788.878 248.015C789.057 247.665 789.152 247.276 789.153 246.881L789.16 241.476C790.461 241.003 791.547 240.171 792.33 239.098L792.341 239.08C793.118 238.019 793.592 236.675 793.594 235.218L793.594 234.978C793.597 233.13 792.858 231.455 791.664 230.26C791.082 229.628 790.382 229.125 789.605 228.782C788.828 228.439 787.992 228.262 787.146 228.262L786.26 228.261C784.657 228.421 783.175 229.205 782.116 230.452L782.11 230.458C781.035 231.686 780.441 233.28 780.442 234.932L780.442 235.082L780.442 235.076L780.442 235.196C780.44 236.654 780.905 237.992 781.697 239.073L781.686 239.055C782.483 240.148 783.561 240.983 784.821 241.44L784.867 241.458L784.862 245.586L762.579 258.362C762.285 258.571 762.029 258.833 761.825 259.135L761.82 259.147C761.611 259.475 761.499 259.859 761.497 260.251L761.497 260.353L761.497 260.347L761.474 279.545L752.604 283.8L752.654 241.972L771.329 232.599C771.698 232.409 772.007 232.116 772.223 231.754L772.228 231.742C772.448 231.407 772.568 231.013 772.574 230.609L772.583 223.349C773.884 222.877 774.97 222.044 775.753 220.971L775.764 220.953C776.541 219.892 777.015 218.549 777.017 217.091L777.017 216.965L777.017 216.971L777.018 216.605C777.018 216.541 777.006 216.478 776.982 216.419C776.958 216.36 776.923 216.307 776.878 216.263C776.71 214.603 775.952 213.066 774.749 211.947L774.743 211.941C773.589 210.793 772.046 210.152 770.441 210.154L769.694 210.153C768.067 210.333 766.568 211.142 765.498 212.416L765.492 212.422C764.376 213.647 763.755 215.264 763.754 216.943L763.753 217.681C763.938 219.043 764.45 220.25 765.213 221.258L765.201 221.24C765.941 222.243 766.955 222.988 768.127 223.368L768.168 223.38L768.16 229.211L752.66 237.016L752.689 212.814C754.002 212.324 755.094 211.461 755.859 210.346L755.871 210.322C756.648 209.249 757.122 207.9 757.124 206.436L757.124 206.292C757.126 204.444 756.388 202.769 755.193 201.574C754.598 200.942 753.885 200.439 753.097 200.096C752.309 199.753 751.461 199.576 750.606 199.577L750.483 199.577L750.489 199.577L750.372 199.576C748.576 199.574 746.948 200.334 745.786 201.563C744.589 202.761 743.846 204.428 743.844 206.282L743.844 206.408L743.844 206.402L743.843 207.11C744.016 208.448 744.534 209.637 745.297 210.609L745.285 210.597C746.059 211.576 747.056 212.333 748.204 212.785L748.251 212.803L748.203 252.213L737.281 246.225L737.302 228.256C737.302 227.915 737.205 227.581 737.024 227.296L737.029 227.302C736.866 227.048 736.681 226.809 736.476 226.587L728.866 220.591C729.051 220.218 729.188 219.823 729.276 219.415L729.282 219.379C729.37 218.978 729.423 218.522 729.424 218.048L729.424 217.904C729.426 216.056 728.687 214.381 727.493 213.186C726.897 212.556 726.185 212.055 725.398 211.713C724.611 211.371 723.765 211.195 722.911 211.194L722.824 211.194L722.829 211.194L722.713 211.194C720.916 211.192 719.288 211.952 718.126 213.18C716.929 214.379 716.186 216.046 716.184 217.9L716.184 218.026L716.184 218.02L716.184 218.164C716.182 219.994 716.909 221.65 718.08 222.846C719.245 224.077 720.865 224.841 722.667 224.843L722.79 224.843L722.784 224.843L722.871 224.843C723.443 224.845 724.012 224.747 724.551 224.551L724.516 224.563C725.158 224.318 725.684 224.079 726.191 223.815L726.104 223.857L732.874 229.415L732.852 247.623C732.85 248.009 732.973 248.385 733.201 248.692L733.195 248.686C733.426 249.013 733.729 249.279 734.081 249.461L734.092 249.467L748.192 257.163L748.174 271.676L724.537 260.404L724.962 251.585L724.962 251.441C724.965 251.055 724.842 250.68 724.614 250.373L724.619 250.379C724.389 250.051 724.085 249.786 723.734 249.604L723.722 249.598L712.934 243.766C713.027 243.461 713.075 243.143 713.075 242.824L713.076 241.624C712.908 239.964 712.15 238.427 710.947 237.308L710.941 237.302C709.757 236.147 708.188 235.503 706.557 235.503L706.452 235.503L706.458 235.503L706.417 235.502C704.638 235.5 703.033 236.26 701.895 237.489C700.68 238.687 699.92 240.372 699.917 242.238L699.917 242.328L699.917 242.322L699.916 243.03C700.084 244.74 700.869 246.235 702.046 247.292L702.052 247.298C703.176 248.361 704.68 249.011 706.337 249.013L707.101 249.014C707.759 248.927 708.405 248.761 709.026 248.519L708.968 248.536C709.574 248.297 710.106 247.986 710.573 247.602L710.561 247.614L720.51 252.906L720.226 261.725L720.226 261.773C720.225 262.223 720.324 262.643 720.504 263.021L720.498 263.003C720.704 263.398 721.044 263.702 721.454 263.856L721.465 263.862L748.145 276.697L748.095 317.908C746.898 317.906 745.721 317.857 744.567 317.76L741.039 317.473L741.484 291.292C741.479 290.883 741.358 290.485 741.136 290.146L741.141 290.152C740.898 289.764 740.541 289.465 740.122 289.299L740.11 289.293L723.381 281.305L723.382 280.555C723.384 278.725 722.645 277.075 721.451 275.903C720.855 275.271 720.142 274.769 719.354 274.425C718.566 274.082 717.719 273.906 716.863 273.906L716.741 273.906L716.747 273.906L716.082 273.905C714.479 274.065 712.997 274.849 711.938 276.096L711.932 276.102C710.858 277.329 710.263 278.923 710.265 280.575L710.264 280.725L710.264 280.719L710.264 280.761C710.262 282.591 711.001 284.242 712.195 285.413C713.331 286.645 714.934 287.408 716.713 287.411L716.94 287.411C717.85 287.412 718.719 287.215 719.501 286.85L719.461 286.868C720.278 286.467 720.984 285.988 721.614 285.419L721.603 285.431L737.085 292.709L737.056 316.755C729.774 315.351 722.795 312.613 716.454 308.672L716.734 308.835C710.613 305.09 705.151 300.308 700.577 294.692L700.496 294.59C695.991 289 692.405 282.689 689.88 275.907L689.729 275.451C687.106 268.363 685.779 260.838 685.813 253.254L685.814 252.588C685.825 243.625 687.666 235.102 690.977 227.391L690.825 227.792C694.045 220.098 698.653 213.101 704.404 207.17C710.073 201.377 716.742 196.722 724.07 193.443L724.484 193.276C732.102 189.87 740.325 188.131 748.631 188.169L748.986 188.17L748.969 188.17L749.342 188.17C758.056 188.181 766.341 190.074 773.838 193.479L773.447 193.323C780.923 196.63 787.725 201.361 793.494 207.266C799.136 213.093 803.669 219.953 806.86 227.494L807.023 227.92C810.164 235.231 811.985 243.759 811.974 252.728L811.974 253.13L811.974 253.112L811.973 253.496C811.963 262.159 810.25 270.413 807.161 277.92L807.314 277.506C804.307 284.985 800 291.837 794.604 297.727L794.633 297.692C789.334 303.444 783.059 308.154 776.116 311.588L775.736 311.756C768.967 315.155 761.055 317.329 752.703 317.781L752.551 317.787L752.557 317.817Z" stroke="#015049" stroke-width="2" mask="url(#path-1-outside-1_0_1)"/>
<path d="M65.3525 226.696V163.592H146.409C163.454 163.592 176.51 159.24 185.577 150.536C195.006 141.832 199.721 130.045 199.721 115.176C199.721 101.395 195.187 89.9706 186.121 80.904C177.054 71.8373 163.998 67.304 146.953 67.304H65.3525V0.935984H156.745C182.131 0.935984 204.435 5.83199 223.657 15.624C242.878 25.0533 257.929 38.2906 268.809 55.336C279.689 72.3813 285.129 91.9653 285.129 114.088C285.129 136.573 279.689 156.339 268.809 173.384C257.929 190.067 242.697 203.123 223.113 212.552C203.529 221.981 180.499 226.696 154.025 226.696H65.3525ZM0.0725074 385V0.935984H85.4805V385H0.0725074ZM208.969 385L89.2885 219.624L167.625 198.408L310.153 385H208.969ZM447.772 390.984C420.572 390.984 395.91 385 373.788 373.032C352.028 360.701 334.801 344.019 322.108 322.984C309.414 301.949 303.068 278.376 303.068 252.264C303.068 226.152 309.414 202.76 322.108 182.088C334.801 161.416 352.028 145.096 373.788 133.128C395.548 120.797 420.209 114.632 447.772 114.632C475.334 114.632 499.996 120.616 521.756 132.584C543.516 144.552 560.742 161.053 573.436 182.088C586.129 202.76 592.476 226.152 592.476 252.264C592.476 278.376 586.129 301.949 573.436 322.984C560.742 344.019 543.516 360.701 521.756 373.032C499.996 385 475.334 390.984 447.772 390.984ZM447.772 315.368C459.74 315.368 470.257 312.829 479.324 307.752C488.39 302.312 495.281 294.877 499.996 285.448C505.073 275.656 507.612 264.595 507.612 252.264C507.612 239.933 505.073 229.235 499.996 220.168C494.918 210.739 487.846 203.485 478.78 198.408C470.076 192.968 459.74 190.248 447.772 190.248C436.166 190.248 425.83 192.968 416.764 198.408C407.697 203.485 400.625 210.739 395.548 220.168C390.47 229.597 387.932 240.477 387.932 252.808C387.932 264.776 390.47 275.656 395.548 285.448C400.625 294.877 407.697 302.312 416.764 307.752C425.83 312.829 436.166 315.368 447.772 315.368ZM748.697 390.984C721.497 390.984 696.836 385 674.713 373.032C652.953 360.701 635.727 344.019 623.033 322.984C610.34 301.949 603.993 278.376 603.993 252.264C603.993 226.152 610.34 202.76 623.033 182.088C635.727 161.416 652.953 145.096 674.713 133.128C696.473 120.797 721.135 114.632 748.697 114.632C776.26 114.632 800.921 120.616 822.681 132.584C844.441 144.552 861.668 161.053 874.361 182.088C887.055 202.76 893.401 226.152 893.401 252.264C893.401 278.376 887.055 301.949 874.361 322.984C861.668 344.019 844.441 360.701 822.681 373.032C800.921 385 776.26 390.984 748.697 390.984ZM748.697 315.368C760.665 315.368 771.183 312.829 780.249 307.752C789.316 302.312 796.207 294.877 800.921 285.448C805.999 275.656 808.537 264.595 808.537 252.264C808.537 239.933 805.999 229.235 800.921 220.168C795.844 210.739 788.772 203.485 779.705 198.408C771.001 192.968 760.665 190.248 748.697 190.248C737.092 190.248 726.756 192.968 717.689 198.408C708.623 203.485 701.551 210.739 696.473 220.168C691.396 229.597 688.857 240.477 688.857 252.808C688.857 264.776 691.396 275.656 696.473 285.448C701.551 294.877 708.623 302.312 717.689 307.752C726.756 312.829 737.092 315.368 748.697 315.368ZM954.55 385V11.272H1037.78V385H954.55ZM894.71 191.336V120.616H1097.62V191.336H894.71Z" fill="#015049"/>
</svg>
