<svg width="195" height="193" viewBox="0 0 195 193" fill="none" xmlns="http://www.w3.org/2000/svg">
<path d="M97.484 0H96.8423C83.3571 0 70.5299 2.80631 58.9293 7.86409L59.5305 7.63091C47.9937 12.5395 37.498 19.5619 28.5957 28.3284C19.8919 36.9651 12.8891 47.1307 7.94548 58.3053L7.69364 58.9405C2.57516 70.5804 -0.0445497 83.146 0.00057314 95.8406V96.5322V96.5V97.1352C0.00057314 110.483 2.83572 123.18 7.94548 134.663L7.70989 134.068C12.6662 145.482 19.755 155.868 28.6038 164.68C37.3323 173.295 47.605 180.226 58.8968 185.12L59.5386 185.369C70.538 190.194 83.3652 193 96.8504 193H97.5247H97.4922H98.1339C111.619 193 124.446 190.194 136.047 185.136L135.446 185.369C146.984 180.463 157.482 173.443 166.389 164.68C175.092 156.043 182.095 145.877 187.039 134.703L187.291 134.068C192.165 123.18 195 110.491 195 97.1352V95.8648C195 82.5167 192.165 69.82 187.055 58.3374L187.291 58.9325C182.329 47.521 175.238 37.1382 166.389 28.3284C157.663 19.7132 147.393 12.7816 136.104 7.88822L135.462 7.63895C124.463 2.81435 111.627 0 98.1339 0H97.4597H97.4922H97.484ZM102.683 183.254V166.473L144.869 145.301C145.365 145.06 145.794 144.704 146.12 144.264L146.128 144.255C146.442 143.804 146.609 143.268 146.608 142.72V142.631V142.639V133.103C148.435 132.443 149.955 131.285 151.019 129.79L151.035 129.758C152.115 128.318 152.773 126.509 152.773 124.547V123.598C152.575 121.301 151.514 119.161 149.8 117.6L149.792 117.592C148.144 116.054 145.964 115.199 143.699 115.203H143.521H143.529H143.366C140.864 115.203 138.598 116.225 136.981 117.873C135.316 119.481 134.284 121.717 134.284 124.201V124.37V124.362V124.836C134.3 125.078 134.373 125.295 134.479 125.488V125.48C134.585 127.265 135.259 128.881 136.323 130.168L136.315 130.152C137.395 131.462 138.785 132.475 140.385 133.078L140.45 133.103V140.734L102.683 159.807V144.191L119.247 136.56C119.763 136.304 120.221 135.949 120.596 135.515L120.604 135.507C120.977 135.071 121.181 134.518 121.181 133.947V107.95L151.994 90.7909C152.491 90.5457 152.896 90.1481 153.147 89.6571L153.155 89.641C153.405 89.1725 153.536 88.651 153.537 88.1213V80.8763C155.349 80.2411 156.86 79.1234 157.948 77.6841L157.964 77.6599C159.045 76.2367 159.703 74.4355 159.703 72.4815V72.1599C159.703 69.6833 158.671 67.4398 157.006 65.8397C156.195 64.9943 155.218 64.3216 154.136 63.8626C153.053 63.4036 151.888 63.1679 150.71 63.1701H149.475C147.244 63.387 145.18 64.4398 143.707 66.1131L143.699 66.1211C142.204 67.7683 141.38 69.9055 141.384 72.1197V72.3207V72.3127V72.4735C141.384 74.4275 142.034 76.2206 143.139 77.668L143.123 77.6439C144.235 79.1073 145.738 80.225 147.493 80.8361L147.558 80.8603V86.3925L116.542 103.552C116.133 103.833 115.778 104.184 115.494 104.589L115.486 104.605C115.196 105.045 115.04 105.559 115.039 106.085V106.222V106.214V131.945L102.691 137.662V81.6L128.687 69.0078C129.2 68.7521 129.63 68.3593 129.93 67.8741L129.938 67.858C130.243 67.4082 130.41 66.8801 130.417 66.3382V56.6086C132.229 55.9734 133.74 54.8557 134.828 53.4163L134.845 53.3922C135.925 51.969 136.583 50.1678 136.583 48.2138V48.045V48.053V47.5625C136.584 47.477 136.567 47.3922 136.533 47.3134C136.5 47.2346 136.45 47.1634 136.388 47.1042C136.152 44.8799 135.093 42.8206 133.415 41.3227L133.407 41.3146C131.797 39.7784 129.647 38.9219 127.411 38.9265H126.372C124.106 39.1712 122.019 40.2574 120.531 41.966L120.523 41.974C118.97 43.6187 118.108 45.7861 118.11 48.0369V49.026C118.37 50.8513 119.085 52.4675 120.149 53.8184L120.133 53.7943C121.164 55.1371 122.578 56.1342 124.211 56.6408L124.268 56.6569V64.4727L102.691 74.9582V42.5208C104.519 41.8614 106.038 40.7035 107.102 39.2079L107.119 39.1757C108.199 37.7364 108.857 35.9272 108.857 33.9652V33.7722C108.857 31.2956 107.825 29.0521 106.16 27.452C105.329 26.6057 104.336 25.9333 103.237 25.4747C102.139 25.0161 100.959 24.7806 99.7668 24.7824H99.5962H99.6043H99.4418C96.9398 24.7824 94.6733 25.8036 93.0567 27.452C91.3913 29.0602 90.3596 31.2956 90.3596 33.7802V33.9491V33.941V34.8899C90.6033 36.683 91.3263 38.2751 92.3905 39.5778L92.3743 39.5617C93.4547 40.8724 94.8439 41.8856 96.4442 42.4886L96.5092 42.5128V95.3341L81.2855 87.3252V63.2424C81.2849 62.7851 81.1494 62.338 80.8956 61.9559L80.9037 61.9639C80.6752 61.6232 80.417 61.3031 80.132 61.007L69.5225 52.9821C69.7785 52.4827 69.9696 51.9531 70.0912 51.4061L70.0993 51.3578C70.2212 50.8191 70.2943 50.208 70.2943 49.5727V49.3798C70.2943 46.9031 69.2626 44.6597 67.5972 43.0595C66.7664 42.2164 65.7733 41.5465 64.6767 41.0894C63.58 40.6323 62.402 40.3972 61.2121 40.398H61.0902H61.0983H60.9359C58.4338 40.398 56.1673 41.4192 54.5507 43.0676C52.8854 44.6758 51.8537 46.9112 51.8537 49.3958V49.5647V49.5567V49.7496C51.8537 52.2021 52.8691 54.4215 54.502 56.0216C56.1267 57.67 58.385 58.6912 60.8952 58.6912H61.0658H61.0577H61.1796C61.9765 58.6932 62.7678 58.56 63.5192 58.2972L63.4704 58.3133C64.364 57.9836 65.0952 57.662 65.8019 57.3082L65.6801 57.3645L75.1197 64.8024V89.2068C75.1173 89.7242 75.2887 90.2278 75.6071 90.6381L75.599 90.6301C75.9205 91.0689 76.3441 91.4247 76.8338 91.6674L76.85 91.6754L96.5011 101.968V121.419L63.5598 106.35L64.1366 94.53V94.337C64.139 93.8196 63.9675 93.316 63.6492 92.9057L63.6573 92.9137C63.3357 92.4749 62.9122 92.1191 62.4225 91.8764L62.4062 91.8684L47.3694 84.0686C47.4991 83.6601 47.5648 83.2344 47.5644 82.8062V81.198C47.328 78.9737 46.269 76.9145 44.5911 75.4165L44.583 75.4085C42.9325 73.8629 40.7461 73.0024 38.474 73.0042H38.3278H38.3359H38.2791C35.8014 73.0042 33.5674 74.0254 31.9833 75.6738C30.2936 77.282 29.2375 79.5415 29.2375 82.0423V82.1629V82.1549V83.1037C29.4731 85.3954 30.5698 87.3976 32.2107 88.8128L32.2189 88.8208C33.7867 90.2441 35.8826 91.1125 38.1897 91.1125H39.2539C40.1709 90.995 41.0707 90.771 41.9347 90.4451L41.8535 90.4693C42.6983 90.1476 43.4376 89.7295 44.0875 89.2149L44.0712 89.2309L57.9382 96.307L57.5564 108.127V108.192C57.5564 108.795 57.6945 109.358 57.9464 109.864L57.9382 109.84C58.226 110.369 58.7001 110.776 59.2705 110.982L59.2868 110.99L96.4686 128.149V183.383C94.8005 183.383 93.1623 183.319 91.5538 183.19L86.639 182.812L87.2158 147.721C87.2083 147.173 87.0389 146.639 86.7284 146.185L86.7365 146.193C86.3966 145.673 85.8988 145.274 85.3148 145.052L85.2986 145.043L61.9838 134.365V133.36C61.9838 130.907 60.9521 128.696 59.2868 127.128C58.4562 126.282 57.4622 125.609 56.3639 125.151C55.2657 124.692 54.0855 124.457 52.8935 124.459H52.7229H52.731H51.8049C49.5735 124.675 47.5101 125.728 46.0371 127.402L46.029 127.41C44.5342 129.057 43.7093 131.194 43.7138 133.408V133.609V133.601V133.657C43.7138 136.11 44.7455 138.321 46.4108 139.889C47.9949 141.538 50.2289 142.559 52.7066 142.559H53.0235C54.2907 142.559 55.5012 142.293 56.5897 141.803L56.5329 141.827C57.6702 141.288 58.6531 140.645 59.5305 139.881L59.5142 139.897L81.0906 149.627V181.855C70.945 179.986 61.2211 176.328 52.3817 171.056L52.7716 171.273C44.2401 166.263 36.6242 159.864 30.2448 152.345L30.1311 152.208C23.8466 144.722 18.8413 136.27 15.3136 127.184L15.1024 126.573C11.4376 117.078 9.57585 106.994 9.61082 96.8297V95.9371C9.61082 83.9239 12.1616 72.4976 16.7596 62.1569L16.5484 62.6956C21.0212 52.3784 27.4271 42.9928 35.4277 35.0346C43.3137 27.2606 52.5952 21.0104 62.7962 16.6047L63.3729 16.3795C73.9774 11.8022 85.4278 9.45821 96.9966 9.49642H97.4922H97.4678H97.9877C110.124 9.49642 121.668 12.0213 132.115 16.5725L131.571 16.3634C141.99 20.7842 151.471 27.1135 159.516 35.0185C167.384 42.8193 173.71 52.0071 178.168 62.1087L178.395 62.6796C182.782 72.4735 185.333 83.8998 185.333 95.921V96.4598V96.4357V96.9503C185.333 108.561 182.961 119.626 178.672 129.693L178.883 129.138C174.707 139.167 168.719 148.358 161.214 156.261L161.254 156.212C153.884 163.931 145.151 170.253 135.486 174.868L134.958 175.093C125.535 179.66 114.519 182.587 102.886 183.206L102.675 183.214L102.683 183.254Z" fill="#086058"/>
</svg>
