<svg width="1072" height="409" viewBox="0 0 1072 409" fill="none" xmlns="http://www.w3.org/2000/svg">
<path d="M718.484 152H717.842C704.357 152 691.53 154.806 679.929 159.864L680.53 159.631C668.994 164.54 658.498 171.562 649.596 180.328C640.892 188.965 633.889 199.131 628.945 210.305L628.694 210.941C623.575 222.58 620.955 235.146 621.001 247.841V248.532V248.5V249.135C621.001 262.483 623.836 275.18 628.945 286.663L628.71 286.068C633.666 297.482 640.755 307.868 649.604 316.68C658.332 325.295 668.605 332.226 679.897 337.12L680.539 337.369C691.538 342.194 704.365 345 717.85 345H718.525H718.492H719.134C732.619 345 745.446 342.194 757.047 337.136L756.446 337.369C767.984 332.463 778.482 325.443 787.389 316.68C796.092 308.043 803.095 297.877 808.039 286.703L808.291 286.068C813.165 275.18 816 262.491 816 249.135V247.865C816 234.517 813.165 221.82 808.055 210.337L808.291 210.932C803.329 199.521 796.238 189.138 787.389 180.328C778.663 171.713 768.393 164.782 757.104 159.888L756.462 159.639C745.463 154.814 732.627 152 719.134 152H718.46H718.492H718.484ZM723.683 335.254V318.473L765.869 297.301C766.365 297.06 766.794 296.704 767.12 296.264L767.128 296.255C767.442 295.804 767.609 295.268 767.608 294.72V294.631V294.639V285.103C769.435 284.443 770.955 283.285 772.019 281.79L772.035 281.758C773.115 280.318 773.773 278.509 773.773 276.547V275.598C773.575 273.301 772.514 271.161 770.8 269.6L770.792 269.592C769.144 268.054 766.964 267.199 764.699 267.203H764.521H764.529H764.366C761.864 267.203 759.598 268.225 757.981 269.873C756.316 271.481 755.284 273.717 755.284 276.201V276.37V276.362V276.836C755.3 277.078 755.373 277.295 755.479 277.488V277.48C755.585 279.265 756.259 280.881 757.323 282.168L757.315 282.152C758.395 283.462 759.785 284.475 761.385 285.078L761.45 285.103V292.734L723.683 311.807V296.191L740.247 288.56C740.763 288.304 741.221 287.949 741.596 287.515L741.604 287.507C741.977 287.071 742.181 286.518 742.181 285.947V259.95L772.994 242.791C773.491 242.546 773.896 242.148 774.147 241.657L774.155 241.641C774.405 241.172 774.536 240.651 774.537 240.121V232.876C776.349 232.241 777.86 231.123 778.948 229.684L778.964 229.66C780.045 228.237 780.703 226.436 780.703 224.482V224.16C780.703 221.683 779.671 219.44 778.006 217.84C777.195 216.994 776.218 216.322 775.136 215.863C774.053 215.404 772.888 215.168 771.71 215.17H770.475C768.244 215.387 766.18 216.44 764.707 218.113L764.699 218.121C763.204 219.768 762.38 221.906 762.384 224.12V224.321V224.313V224.473C762.384 226.427 763.034 228.221 764.139 229.668L764.123 229.644C765.235 231.107 766.738 232.225 768.493 232.836L768.558 232.86V238.392L737.542 255.552C737.133 255.833 736.778 256.184 736.494 256.589L736.486 256.605C736.196 257.045 736.04 257.559 736.039 258.085V258.222V258.214V283.945L723.691 289.662V233.6L749.687 221.008C750.2 220.752 750.63 220.359 750.93 219.874L750.938 219.858C751.243 219.408 751.41 218.88 751.417 218.338V208.609C753.229 207.973 754.74 206.856 755.828 205.416L755.845 205.392C756.925 203.969 757.583 202.168 757.583 200.214V200.045V200.053V199.562C757.584 199.477 757.567 199.392 757.533 199.313C757.5 199.235 757.45 199.163 757.388 199.104C757.152 196.88 756.093 194.821 754.415 193.323L754.407 193.315C752.797 191.778 750.647 190.922 748.411 190.926H747.372C745.106 191.171 743.019 192.257 741.531 193.966L741.523 193.974C739.97 195.619 739.108 197.786 739.11 200.037V201.026C739.37 202.851 740.085 204.468 741.149 205.818L741.133 205.794C742.164 207.137 743.578 208.134 745.211 208.641L745.268 208.657V216.473L723.691 226.958V194.521C725.519 193.861 727.038 192.704 728.102 191.208L728.119 191.176C729.199 189.736 729.857 187.927 729.857 185.965V185.772C729.857 183.296 728.825 181.052 727.16 179.452C726.329 178.606 725.336 177.933 724.237 177.475C723.139 177.016 721.959 176.781 720.767 176.782H720.596H720.604H720.442C717.94 176.782 715.673 177.804 714.057 179.452C712.391 181.06 711.36 183.296 711.36 185.78V185.949V185.941V186.89C711.603 188.683 712.326 190.275 713.391 191.578L713.374 191.562C714.455 192.872 715.844 193.886 717.444 194.489L717.509 194.513V247.334L702.286 239.325V215.242C702.285 214.785 702.149 214.338 701.896 213.956L701.904 213.964C701.675 213.623 701.417 213.303 701.132 213.007L690.523 204.982C690.779 204.483 690.97 203.953 691.091 203.406L691.099 203.358C691.221 202.819 691.294 202.208 691.294 201.573V201.38C691.294 198.903 690.263 196.66 688.597 195.06C687.766 194.216 686.773 193.547 685.677 193.089C684.58 192.632 683.402 192.397 682.212 192.398H682.09H682.098H681.936C679.434 192.398 677.167 193.419 675.551 195.068C673.885 196.676 672.854 198.911 672.854 201.396V201.565V201.557V201.75C672.854 204.202 673.869 206.421 675.502 208.022C677.127 209.67 679.385 210.691 681.895 210.691H682.066H682.058H682.18C682.976 210.693 683.768 210.56 684.519 210.297L684.47 210.313C685.364 209.984 686.095 209.662 686.802 209.308L686.68 209.364L696.12 216.802V241.207C696.117 241.724 696.289 242.228 696.607 242.638L696.599 242.63C696.921 243.069 697.344 243.425 697.834 243.667L697.85 243.675L717.501 253.968V273.419L684.56 258.35L685.137 246.53V246.337C685.139 245.82 684.968 245.316 684.649 244.906L684.657 244.914C684.336 244.475 683.912 244.119 683.422 243.876L683.406 243.868L668.369 236.069C668.499 235.66 668.565 235.234 668.564 234.806V233.198C668.328 230.974 667.269 228.914 665.591 227.417L665.583 227.408C663.932 225.863 661.746 225.002 659.474 225.004H659.328H659.336H659.279C656.801 225.004 654.567 226.025 652.983 227.674C651.294 229.282 650.237 231.542 650.237 234.042V234.163V234.155V235.104C650.473 237.395 651.57 239.398 653.211 240.813L653.219 240.821C654.787 242.244 656.883 243.113 659.19 243.113H660.254C661.171 242.995 662.071 242.771 662.935 242.445L662.853 242.469C663.698 242.148 664.438 241.729 665.087 241.215L665.071 241.231L678.938 248.307L678.556 260.127V260.192C678.556 260.795 678.695 261.358 678.946 261.864L678.938 261.84C679.226 262.369 679.7 262.776 680.271 262.982L680.287 262.99L717.469 280.149V335.383C715.801 335.383 714.162 335.319 712.554 335.19L707.639 334.812L708.216 299.721C708.208 299.173 708.039 298.639 707.728 298.185L707.736 298.193C707.397 297.673 706.899 297.274 706.315 297.052L706.299 297.043L682.984 286.365V285.36C682.984 282.907 681.952 280.696 680.287 279.128C679.456 278.282 678.462 277.609 677.364 277.151C676.266 276.692 675.085 276.457 673.893 276.459H673.723H673.731H672.805C670.573 276.675 668.51 277.728 667.037 279.402L667.029 279.41C665.534 281.057 664.709 283.194 664.714 285.408V285.609V285.601V285.657C664.714 288.11 665.745 290.321 667.411 291.889C668.995 293.538 671.229 294.559 673.707 294.559H674.023C675.291 294.559 676.501 294.293 677.59 293.803L677.533 293.827C678.67 293.288 679.653 292.645 680.53 291.881L680.514 291.897L702.091 301.627V333.855C691.945 331.986 682.221 328.328 673.382 323.056L673.772 323.273C665.24 318.263 657.624 311.864 651.245 304.345L651.131 304.208C644.847 296.722 639.841 288.27 636.314 279.184L636.102 278.573C632.438 269.078 630.576 258.994 630.611 248.83V247.937C630.611 235.924 633.162 224.498 637.76 214.157L637.548 214.696C642.021 204.378 648.427 194.993 656.428 187.035C664.314 179.261 673.595 173.01 683.796 168.605L684.373 168.38C694.977 163.802 706.428 161.458 717.997 161.496H718.492H718.468H718.988C731.124 161.496 742.668 164.021 753.115 168.572L752.571 168.363C762.99 172.784 772.471 179.114 780.516 187.019C788.384 194.819 794.71 204.007 799.168 214.109L799.395 214.68C803.782 224.474 806.333 235.9 806.333 247.921V248.46V248.436V248.95C806.333 260.561 803.961 271.626 799.672 281.693L799.883 281.138C795.707 291.167 789.719 300.358 782.214 308.261L782.254 308.212C774.884 315.931 766.151 322.253 756.486 326.868L755.958 327.093C746.535 331.66 735.519 334.587 723.886 335.206L723.675 335.214L723.683 335.254Z" fill="#086058"/>
<g filter="url(#filter0_d_0_1)">
<path d="M35.0074 213.712V170.736H137.279C159.402 170.736 176.447 165.115 188.415 153.872C200.383 142.629 206.367 127.397 206.367 108.176C206.367 90.0427 200.383 74.992 188.415 63.024C176.81 51.056 159.946 45.072 137.823 45.072H35.0074V0.463997H139.455C163.391 0.463997 184.245 5.17866 202.015 14.608C219.786 23.6747 233.386 36.1867 242.815 52.144C252.607 68.1013 257.503 86.416 257.503 107.088C257.503 128.485 252.607 147.163 242.815 163.12C233.386 179.077 219.786 191.589 202.015 200.656C184.245 209.36 163.391 213.712 139.455 213.712H35.0074ZM0.735382 378V0.463997H51.8714V378H0.735382ZM218.335 378L81.2474 208.816L129.663 191.952L283.071 378H218.335ZM424.286 383.44C398.899 383.44 376.051 377.456 355.742 365.488C335.433 353.52 319.294 337.381 307.326 317.072C295.358 296.4 289.374 273.371 289.374 247.984C289.374 222.96 295.358 200.475 307.326 180.528C319.294 160.219 335.433 144.08 355.742 132.112C376.051 120.144 398.899 114.16 424.286 114.16C449.31 114.16 471.977 120.144 492.286 132.112C512.958 143.717 529.278 159.675 541.246 179.984C553.214 200.293 559.198 222.96 559.198 247.984C559.198 273.371 553.214 296.4 541.246 317.072C529.278 337.381 512.958 353.52 492.286 365.488C471.977 377.456 449.31 383.44 424.286 383.44ZM424.286 336.112C440.606 336.112 455.113 332.304 467.806 324.688C480.499 317.072 490.473 306.736 497.726 293.68C504.979 280.261 508.606 265.029 508.606 247.984C508.606 231.301 504.798 216.432 497.182 203.376C489.929 190.32 479.955 180.165 467.262 172.912C454.931 165.296 440.606 161.488 424.286 161.488C407.966 161.488 393.459 165.296 380.766 172.912C368.073 180.165 358.099 190.32 350.846 203.376C343.593 216.432 339.966 231.301 339.966 247.984C339.966 265.029 343.593 280.261 350.846 293.68C358.099 306.736 368.073 317.072 380.766 324.688C393.459 332.304 407.966 336.112 424.286 336.112ZM719.899 383.44C694.512 383.44 671.664 377.456 651.355 365.488C631.046 353.52 614.907 337.381 602.939 317.072C590.971 296.4 584.987 273.371 584.987 247.984C584.987 222.96 590.971 200.475 602.939 180.528C614.907 160.219 631.046 144.08 651.355 132.112C671.664 120.144 694.512 114.16 719.899 114.16C744.923 114.16 767.59 120.144 787.899 132.112C808.571 143.717 824.891 159.675 836.859 179.984C848.827 200.293 854.811 222.96 854.811 247.984C854.811 273.371 848.827 296.4 836.859 317.072C824.891 337.381 808.571 353.52 787.899 365.488C767.59 377.456 744.923 383.44 719.899 383.44ZM719.899 336.112C736.219 336.112 750.726 332.304 763.419 324.688C776.112 317.072 786.086 306.736 793.339 293.68C800.592 280.261 804.219 265.029 804.219 247.984C804.219 231.301 800.411 216.432 792.795 203.376C785.542 190.32 775.568 180.165 762.875 172.912C750.544 165.296 736.219 161.488 719.899 161.488C703.579 161.488 689.072 165.296 676.379 172.912C663.686 180.165 653.712 190.32 646.459 203.376C639.206 216.432 635.579 231.301 635.579 247.984C635.579 265.029 639.206 280.261 646.459 293.68C653.712 306.736 663.686 317.072 676.379 324.688C689.072 332.304 703.579 336.112 719.899 336.112ZM929.207 378V11.344H978.167V378H929.207ZM865.559 164.208V119.6H1041.82V164.208H865.559Z" fill="#086058"/>
</g>
<defs>
<filter id="filter0_d_0_1" x="0.735382" y="0.463989" width="1071.08" height="407.976" filterUnits="userSpaceOnUse" color-interpolation-filters="sRGB">
<feFlood flood-opacity="0" result="BackgroundImageFix"/>
<feColorMatrix in="SourceAlpha" type="matrix" values="0 0 0 0 0 0 0 0 0 0 0 0 0 0 0 0 0 0 127 0" result="hardAlpha"/>
<feOffset dx="20" dy="15"/>
<feGaussianBlur stdDeviation="5"/>
<feComposite in2="hardAlpha" operator="out"/>
<feColorMatrix type="matrix" values="0 0 0 0 0 0 0 0 0 0 0 0 0 0 0 0 0 0 0.3 0"/>
<feBlend mode="normal" in2="BackgroundImageFix" result="effect1_dropShadow_0_1"/>
<feBlend mode="normal" in="SourceGraphic" in2="effect1_dropShadow_0_1" result="shape"/>
</filter>
</defs>
</svg>
